<svg width="15" height="15" viewBox="0 0 15 15" fill="none" xmlns="http://www.w3.org/2000/svg">
<circle cx="7.5" cy="7.5" r="7.5" fill="#C4C4C4"/>
<path d="M4.40987 7.44648C4.87703 7.33262 5.12948 6.84183 4.97374 6.35028C4.81799 5.85872 4.31303 5.55254 3.84587 5.6664C3.37871 5.78026 3.12626 6.27104 3.282 6.7626C3.43774 7.25415 3.94271 7.56034 4.40987 7.44648Z" fill="white"/>
<path d="M6.11042 6.58647C6.65803 6.55617 7.06835 6.06438 7.02689 5.48804C6.98543 4.91169 6.50789 4.46903 5.96029 4.49933C5.41268 4.52964 5.00236 5.02142 5.04382 5.59777C5.08528 6.17411 5.56281 6.61677 6.11042 6.58647Z" fill="white"/>
<path d="M9.37445 5.56194C9.43378 4.9868 9.03888 4.4854 8.49241 4.44203C7.94595 4.39867 7.45485 4.82976 7.39552 5.4049C7.33618 5.98004 7.73108 6.48144 8.27755 6.52481C8.82402 6.56817 9.31512 6.13708 9.37445 5.56194Z" fill="white"/>
<path d="M11.2065 6.54204C11.3287 6.04325 11.0436 5.56646 10.5695 5.4771C10.0955 5.38774 9.61211 5.71965 9.48987 6.21844C9.36764 6.71723 9.65284 7.19402 10.1269 7.28338C10.6009 7.37274 11.0843 7.04083 11.2065 6.54204Z" fill="white"/>
<path d="M10.0615 8.41201C10.0135 7.72687 9.35307 7.20633 8.58748 7.24961C8.04852 7.28036 7.60112 7.58221 7.39982 7.99739C7.17384 7.52925 6.63813 7.21544 6.03683 7.24961C5.27125 7.29289 4.69008 7.88349 4.73813 8.56862C4.73553 8.94736 5.28293 9.50264 5.75436 10.0186L6.83358 11.1992C7.12449 11.5176 7.67709 11.5193 7.9706 11.2027C8.30047 10.8461 8.69527 10.4196 8.92709 10.1639C9.38099 9.66438 10.0622 9.04361 10.0622 8.41201H10.0615Z" fill="white"/>
</svg>
